<?xml version="1.0" standalone="no"?>
<!DOCTYPE svg PUBLIC "-//W3C//DTD SVG 20010904//EN"
 "http://www.w3.org/TR/2001/REC-SVG-20010904/DTD/svg10.dtd">
<svg version="1.0" xmlns="http://www.w3.org/2000/svg"
 width="900.000000pt" height="900.000000pt" viewBox="0 0 900.000000 900.000000"
 preserveAspectRatio="xMidYMid meet">
<metadata>
Created by potrace 1.10, written by Peter Selinger 2001-2011
</metadata>
<g transform="translate(0.000000,900.000000) scale(0.100000,-0.100000)"
fill="#164198" stroke="none">
<path d="M5404 7177 c-12 -7 -14 -334 -14 -2381 0 -2286 1 -2374 18 -2389 16
-15 55 -17 338 -18 175 0 328 -4 339 -8 45 -18 -51 -24 -365 -26 -179 0 -324
-4 -322 -8 1 -4 163 -9 360 -11 312 -3 360 -1 384 12 l28 16 2 1156 3 1155
646 2 646 2 54 29 54 29 3 332 c2 324 2 333 -19 359 l-21 27 -681 0 -682 0 -5
345 -5 345 -35 -4 c-79 -9 -85 -8 -88 23 -4 34 14 49 41 35 12 -7 22 -7 32 1
8 6 14 7 17 1 1 -5 10 -11 18 -13 12 -2 16 17 20 112 l5 115 797 1 c760 0 798
1 818 19 19 18 20 29 20 364 -1 276 -3 350 -14 364 -13 17 -73 18 -1196 20
-650 1 -1188 -2 -1196 -6z m2346 -357 c3 -168 2 -309 -2 -314 -3 -4 -11 -5
-17 -1 -14 8 -1573 7 -1607 -1 -13 -3 -24 -10 -24 -14 0 -16 154 -20 854 -21
402 0 740 -4 750 -8 19 -7 18 -8 -5 -17 -13 -5 -357 -9 -781 -9 -596 -1 -760
-3 -770 -13 -8 -8 -14 -49 -16 -107 -2 -52 -5 -95 -6 -95 -2 0 -17 7 -35 16
-32 16 -161 19 -544 11 l-117 -2 2 405 3 405 90 0 c50 0 195 -3 324 -6 208 -5
234 -7 243 -23 9 -16 10 -16 23 1 12 16 32 18 157 21 78 1 168 5 198 7 30 3
172 5 315 6 247 2 262 1 307 -20 39 -17 59 -20 115 -16 105 9 170 -20 106 -47
l-28 -12 45 -6 c56 -7 66 -3 46 19 -21 23 -11 31 36 31 28 0 46 7 63 25 27 26
78 32 188 21 52 -6 57 -5 57 14 0 22 5 21 -143 24 -83 2 -100 -1 -107 -15 -8
-14 -30 -16 -187 -13 -98 2 -181 3 -185 3 -5 1 -8 7 -8 14 0 10 -53 13 -257
13 -765 -1 -1393 5 -1393 13 0 5 8 12 18 14 9 3 528 5 1152 4 l1135 -2 5 -305z
m-2036 -616 c21 -8 21 -67 1 -84 -12 -10 -19 -9 -38 3 -14 9 -39 13 -67 11
-181 -15 -197 -11 -184 42 5 20 12 24 44 24 22 0 42 -5 46 -11 4 -8 9 -8 17 0
18 18 97 14 104 -5 5 -15 8 -15 17 -2 6 8 18 17 26 21 8 3 16 6 17 6 1 1 8 -2
17 -5z m222 -29 c9 -37 -3 -45 -72 -45 l-64 0 0 34 c0 40 3 42 75 38 48 -3 56
-7 61 -27z m59 -5 c0 -28 -4 -35 -20 -35 -13 0 -21 8 -23 23 -5 34 5 54 25 50
13 -2 18 -13 18 -38z m133 -320 c-2 -143 -7 -263 -11 -266 -11 -11 -47 27 -48
50 -1 20 -2 20 -6 1 -6 -22 -23 -36 -35 -29 -11 7 -10 52 2 59 15 10 12 72 -4
78 -8 3 -16 16 -19 29 -3 19 -5 17 -6 -7 0 -17 3 -45 8 -63 9 -30 8 -34 -16
-43 -15 -5 -39 -7 -54 -4 -33 8 -70 -10 -63 -29 4 -10 -6 -15 -33 -19 -21 -3
-63 -11 -93 -17 -30 -7 -69 -12 -87 -11 -40 1 -53 -16 -18 -25 21 -5 25 -12
25 -45 0 -37 -1 -39 -32 -39 -31 0 -31 -1 -15 -17 13 -14 21 -15 35 -7 12 8
26 7 51 -3 24 -10 52 -12 96 -8 42 5 65 3 69 -4 9 -14 143 -15 151 -1 3 6 17
10 30 10 13 0 27 -4 30 -10 3 -5 11 -10 16 -10 13 0 1 40 -18 62 -19 21 -13
62 10 66 26 5 47 -16 47 -47 0 -14 9 -41 20 -58 l20 -33 668 0 669 0 7 -52 c3
-29 6 -116 6 -194 0 -169 -4 -179 -74 -172 -80 9 -91 48 -13 48 l42 0 0 171 0
171 -44 -7 c-67 -10 -128 -15 -220 -18 -90 -2 -115 -17 -59 -34 l33 -10 -25
-10 -25 -10 30 -6 c17 -2 86 -6 155 -7 74 0 127 -5 131 -12 4 -5 2 -29 -4 -52
-6 -22 -9 -57 -8 -77 1 -36 0 -37 -41 -42 -24 -3 -85 -6 -137 -6 -103 -1 -175
-15 -168 -34 2 -8 42 -13 128 -15 144 -3 159 -6 137 -28 -12 -12 -46 -16 -163
-17 l-149 -2 -6 25 c-4 17 -8 21 -14 12 -4 -7 -2 -19 5 -28 10 -12 8 -18 -9
-35 -27 -25 -28 -44 -2 -62 12 -8 18 -21 15 -29 -8 -20 76 -28 286 -28 134 0
158 2 163 16 3 9 4 20 0 25 -3 5 -102 9 -220 9 l-214 0 0 38 0 37 143 -2 c78
-1 171 -2 207 -2 36 -1 77 1 92 5 32 7 44 -19 28 -60 -6 -16 -7 -52 -3 -83 5
-43 3 -54 -6 -49 -7 5 -325 7 -707 7 -684 -2 -695 -2 -715 -22 -19 -19 -29
-20 -107 -14 -48 3 -90 9 -94 13 -3 4 -4 19 -1 33 5 26 7 26 84 26 77 0 100 6
85 20 -13 13 -135 6 -170 -11 -33 -15 -34 -18 -24 -42 20 -44 -4 -50 -134 -35
-37 4 -74 4 -81 0 -7 -5 -26 -1 -41 7 -36 18 -39 18 -31 -5 3 -11 1 -22 -4
-25 -5 -4 -10 -32 -10 -63 0 -46 5 -62 27 -90 l27 -33 188 2 188 2 39 44 c30
34 37 49 31 65 -13 35 -1 67 28 73 14 3 33 8 41 12 8 4 299 5 645 2 508 -4
635 -8 654 -19 58 -33 4 -36 -634 -36 -341 0 -628 -2 -638 -3 -10 -1 -22 -14
-27 -28 -6 -16 -10 -437 -10 -1131 l0 -1105 -23 7 c-12 4 -80 6 -152 4 -335
-7 -492 -4 -509 10 -13 11 -16 28 -14 80 l3 66 105 1 c58 1 168 2 245 2 77 0
157 1 178 2 28 1 43 -5 62 -26 24 -26 25 -26 25 -5 0 11 4 21 10 21 5 0 21 17
35 39 28 42 27 68 -4 110 -17 22 -25 24 -101 23 -46 -1 -87 -5 -93 -11 -5 -5
-21 -6 -40 0 -20 6 -35 5 -44 -2 -9 -8 -21 -8 -40 -1 -34 13 -301 20 -326 8
-16 -8 -17 12 -16 376 0 211 -2 400 -6 420 -4 21 -2 45 5 57 9 18 17 21 44 15
19 -3 36 -1 40 4 9 16 -20 33 -51 30 l-28 -3 0 1215 0 1215 40 2 c34 1 331 4
375 3 93 -1 250 7 256 13 24 23 26 -8 22 -253z m-232 -290 c5 -5 43 -10 84
-12 70 -3 75 -5 78 -26 6 -42 -13 -51 -104 -50 -67 0 -86 3 -93 16 -9 15 -11
15 -29 -1 -15 -14 -33 -17 -78 -15 -53 3 -59 5 -62 26 -6 42 15 53 90 50 43
-1 72 2 80 10 14 14 21 15 34 2z m1353 -239 c9 -6 10 -11 2 -15 -13 -8 -31 1
-31 15 0 11 11 11 29 0z m-1474 -611 c0 -23 -6 -26 -60 -36 -34 -6 -53 -14
-45 -17 25 -11 280 -3 278 8 -2 6 -13 9 -25 7 -13 -1 -23 1 -23 5 0 4 -4 14
-9 21 -7 12 -14 11 -40 -2 -28 -15 -32 -15 -37 -2 -13 34 1 40 92 42 105 2
120 -5 98 -49 -15 -27 -15 -31 0 -39 20 -11 21 -34 2 -41 -29 -11 -387 -10
-398 1 -8 8 -6 19 7 38 14 22 15 30 5 49 -20 38 -5 46 78 43 75 -3 77 -4 77
-28z m97 -2005 c11 -24 12 -24 24 -6 11 15 26 18 101 17 l88 -1 3 -33 c3 -27
-1 -34 -24 -42 -18 -7 -30 -7 -40 1 -8 7 -33 8 -67 4 -37 -5 -57 -3 -62 4 -5
9 -10 9 -20 1 -7 -6 -25 -8 -39 -4 -21 5 -26 12 -26 38 0 18 3 36 7 39 15 15
44 5 55 -18z m-104 2 c6 -5 12 -17 12 -27 0 -10 -6 -22 -12 -27 -7 -4 -86 -8
-175 -9 l-163 -1 0 32 c0 17 3 34 6 37 8 9 317 4 332 -5z"/>
<path d="M5845 6980 c-8 -13 -1 -24 14 -19 6 3 7 10 2 18 -6 10 -10 10 -16 1z"/>
<path d="M7177 6983 c-11 -11 -8 -20 9 -27 21 -8 34 1 27 19 -5 16 -25 20 -36
8z"/>
<path d="M6210 6931 c0 -17 3 -31 8 -32 65 -7 166 -3 180 8 16 12 16 14 -2 28
-11 8 -36 15 -57 15 -20 0 -57 3 -83 6 l-46 7 0 -32z"/>
<path d="M7140 6925 c0 -14 5 -25 10 -25 6 0 10 11 10 25 0 14 -4 25 -10 25
-5 0 -10 -11 -10 -25z"/>
<path d="M5667 6916 c-6 -15 1 -26 15 -26 11 0 10 27 -1 34 -5 3 -11 0 -14 -8z"/>
<path d="M6455 6920 c-3 -5 3 -10 14 -10 12 0 21 5 21 10 0 6 -6 10 -14 10 -8
0 -18 -4 -21 -10z"/>
<path d="M5881 6896 c-17 -10 -20 -15 -10 -18 17 -6 49 9 49 22 0 13 -10 12
-39 -4z"/>
<path d="M7596 6885 c-4 -11 -1 -22 6 -26 7 -4 9 -12 4 -16 -5 -4 -11 -2 -13
5 -3 6 -20 12 -39 12 -27 0 -34 -4 -34 -19 0 -11 4 -23 10 -26 14 -9 180 6
174 16 -2 5 -18 6 -34 3 -25 -6 -31 -2 -48 31 -16 31 -20 35 -26 20z"/>
<path d="M5765 6881 c-7 -12 31 -25 45 -16 5 3 10 10 10 16 0 12 -47 12 -55 0z"/>
<path d="M6030 6880 c0 -6 30 -10 71 -10 44 0 68 4 64 10 -3 6 -35 10 -71 10
-36 0 -64 -4 -64 -10z"/>
<path d="M7085 6850 c-7 -12 12 -40 26 -40 5 0 9 11 9 25 0 25 -23 35 -35 15z"/>
<path d="M5665 6780 c-4 -6 13 -10 44 -10 53 0 68 -13 29 -24 -13 -3 -39 -6
-59 -6 -27 0 -46 -8 -73 -33 -20 -18 -36 -39 -36 -46 0 -7 12 -28 28 -47 23
-29 33 -34 67 -34 22 0 46 4 54 9 8 5 25 2 45 -8 23 -12 51 -15 111 -12 82 4
344 5 425 1 34 -1 267 5 357 9 6 1 18 7 25 14 22 23 42 25 74 8 24 -13 55 -16
150 -14 142 4 123 4 309 2 83 0 153 0 157 0 16 2 38 34 38 56 0 40 26 57 83
54 33 -2 52 1 55 9 5 16 -10 17 -290 21 -126 2 -219 -12 -201 -30 5 -5 79 -9
166 -10 170 -2 190 -8 170 -51 -9 -22 -12 -22 -317 -24 -297 -2 -307 -1 -317
18 -6 11 -9 31 -6 44 3 18 0 24 -14 24 -34 0 -49 -12 -49 -40 0 -16 -5 -32
-12 -36 -7 -5 -89 -8 -182 -8 -126 -1 -170 -4 -173 -13 -6 -18 -30 -16 -37 3
-4 11 -16 15 -40 13 -19 -2 -40 2 -49 9 -12 10 -16 10 -21 -3 -7 -19 -35 -20
-42 0 -4 8 -10 15 -15 15 -5 0 -9 -7 -9 -15 0 -24 -16 -17 -30 13 l-13 27 -6
-25 c-9 -34 -55 -40 -71 -10 -11 21 -12 22 -25 3 -12 -17 -25 -19 -107 -17
-51 1 -99 3 -105 3 -20 1 -17 87 3 95 23 9 31 8 46 -8 16 -15 175 -26 195 -13
7 4 26 1 43 -8 27 -14 30 -14 30 0 0 21 27 30 44 16 10 -9 15 -8 20 4 7 19 33
19 43 0 7 -13 14 -13 42 -2 27 9 35 9 38 0 4 -10 45 -13 163 -13 129 0 160 3
170 15 12 14 24 14 68 -2 14 -6 17 23 3 32 -6 3 -45 8 -88 10 -181 12 -216 16
-236 30 -29 20 -49 19 -45 -2 3 -16 -11 -19 -137 -24 -77 -4 -167 -5 -200 -2
-33 2 -71 3 -84 3 -13 0 -30 5 -37 11 -8 6 -20 9 -28 6 -8 -3 -20 1 -26 9 -14
16 -105 20 -115 4z m55 -118 c6 -18 10 -35 8 -37 -1 -1 -26 -6 -54 -10 -50 -6
-52 -6 -58 20 -12 49 0 65 48 63 40 -2 45 -5 56 -36z"/>
<path d="M5919 6779 c16 -6 28 -6 35 1 7 7 -1 10 -24 9 -33 0 -34 -1 -11 -10z"/>
<path d="M6210 6780 c20 -13 63 -13 55 0 -3 6 -21 10 -38 10 -24 0 -28 -3 -17
-10z"/>
<path d="M6405 6780 c-4 -6 7 -10 27 -10 25 0 29 3 18 10 -19 13 -37 13 -45 0z"/>
<path d="M6975 6720 c-3 -5 3 -10 14 -10 12 0 21 5 21 10 0 6 -6 10 -14 10 -8
0 -18 -4 -21 -10z"/>
<path d="M7621 6721 c-20 -5 -22 -8 -9 -19 12 -9 23 -9 47 -1 24 9 29 14 19
20 -15 10 -23 10 -57 0z"/>
<path d="M7455 6600 c3 -5 17 -10 31 -10 13 0 24 5 24 10 0 6 -14 10 -31 10
-17 0 -28 -4 -24 -10z"/>
<path d="M5977 6503 c-11 -3 -16 -10 -13 -20 3 -8 6 -19 6 -24 0 -5 13 0 30
12 40 31 30 46 -23 32z"/>
<path d="M5660 6490 c8 -5 59 -10 113 -10 l97 0 0 -45 c0 -33 4 -45 15 -45 11
0 15 11 15 40 0 57 -30 70 -157 70 -67 0 -93 -3 -83 -10z"/>
<path d="M5725 6400 l-60 -6 55 -5 c51 -4 55 -6 58 -31 5 -43 29 -35 28 9 -1
42 -1 42 -81 33z"/>
<path d="M5943 6393 c9 -2 25 -2 35 0 9 3 1 5 -18 5 -19 0 -27 -2 -17 -5z"/>
<path d="M5580 6320 l0 -30 20 20 c22 22 19 40 -6 40 -9 0 -14 -11 -14 -30z"/>
<path d="M5470 6001 c0 -6 4 -12 9 -16 12 -7 94 6 86 14 -10 10 -95 12 -95 2z"/>
<path d="M5930 6000 c0 -5 7 -10 15 -10 17 0 55 -35 55 -50 0 -5 -9 -18 -21
-29 -26 -24 -17 -28 48 -23 l53 4 -30 26 c-38 33 -38 50 0 63 51 18 34 29 -45
29 -43 0 -75 -4 -75 -10z"/>
<path d="M5846 5854 c-7 -28 0 -47 15 -39 12 8 12 52 0 59 -5 3 -12 -6 -15
-20z"/>
<path d="M5475 5790 c-3 -5 3 -10 14 -10 11 0 23 5 26 10 3 6 -3 10 -14 10
-11 0 -23 -4 -26 -10z"/>
<path d="M5685 5778 c4 -13 8 -35 10 -50 1 -16 3 -33 4 -39 0 -5 6 -7 12 -3 6
3 9 17 6 31 -3 15 1 27 9 30 8 3 14 16 14 29 0 20 -5 24 -31 24 -28 0 -31 -2
-24 -22z"/>
<path d="M5760 5640 c0 -5 18 -10 40 -10 22 0 40 5 40 10 0 6 -18 10 -40 10
-22 0 -40 -4 -40 -10z"/>
<path d="M5570 5515 c0 -16 6 -25 15 -25 9 0 15 9 15 25 0 16 -6 25 -15 25 -9
0 -15 -9 -15 -25z"/>
<path d="M5963 5359 c-33 -11 9 -24 97 -29 83 -5 85 -6 88 -31 2 -15 -2 -28
-10 -30 -7 -3 -58 -2 -113 1 l-100 5 -6 30 -6 30 -7 -27 c-10 -34 -18 -36
-140 -37 -55 0 -107 -3 -117 -6 -11 -4 -23 2 -32 16 -18 24 -41 16 -32 -11 3
-10 1 -21 -5 -25 -13 -8 -13 -52 0 -60 6 -3 10 -15 10 -25 0 -27 17 -34 29
-11 8 14 7 27 -3 46 -29 56 -36 55 366 54 l369 -1 -3 -36 c-3 -35 -5 -37 -41
-40 -30 -3 -37 -7 -33 -18 3 -9 6 -20 6 -25 0 -17 27 -9 54 16 25 23 28 24 50
9 18 -11 57 -15 160 -17 l136 -2 30 33 c29 32 40 72 20 72 -5 0 -18 8 -28 18
-38 37 -72 52 -122 52 -27 0 -50 5 -50 10 0 6 37 10 90 10 72 0 90 3 90 14 0
12 -16 15 -77 14 -43 -1 -207 1 -366 3 -158 2 -295 2 -304 -2z m440 -35 c19
-7 10 -42 -15 -55 -12 -6 -54 -8 -113 -3 -79 6 -95 10 -95 23 0 33 22 41 116
41 51 0 99 -3 107 -6z m82 -4 c4 -6 -6 -10 -22 -9 -25 0 -26 1 -8 9 11 5 21 9
22 9 1 1 5 -3 8 -9z m203 -107 l-3 -38 -135 -1 c-74 0 -143 1 -152 3 -20 5
-24 43 -8 59 6 6 72 12 156 13 l145 2 -3 -38z"/>
<path d="M5808 5349 c-10 -5 -18 -18 -18 -27 1 -16 1 -16 11 1 6 10 22 17 40
17 18 0 28 4 24 10 -8 13 -35 12 -57 -1z"/>
<path d="M6923 5343 c20 -2 54 -2 75 0 20 2 3 4 -38 4 -41 0 -58 -2 -37 -4z"/>
<path d="M7330 5190 c18 -4 40 -17 48 -27 13 -17 13 -16 10 7 -3 22 -8 25 -48
27 -44 2 -44 1 -10 -7z"/>
<path d="M5724 5169 c-7 -12 15 -21 37 -14 11 4 30 0 44 -9 21 -14 24 -14 29
0 3 9 6 19 6 23 0 9 -110 9 -116 0z"/>
<path d="M5653 5102 c-13 -2 -23 -9 -23 -15 0 -7 -16 -32 -35 -56 l-36 -45 23
-21 c61 -56 51 -55 369 -55 351 1 348 0 381 22 32 21 43 50 28 78 -16 30 -30
24 -28 -11 3 -26 -2 -35 -29 -50 -26 -15 -32 -15 -37 -3 -4 10 -20 13 -53 13
-26 -1 -171 -1 -321 0 -297 1 -299 2 -274 57 13 27 30 29 85 10 20 -8 40 -10
42 -6 10 15 292 15 310 0 6 -5 17 -5 25 0 8 6 52 10 96 10 93 0 146 8 142 22
-2 5 -30 19 -63 30 -54 18 -86 21 -320 22 -143 0 -270 0 -282 -2z"/>
<path d="M5674 4839 c-3 -5 33 -9 80 -9 47 0 86 4 86 9 0 12 -159 11 -166 0z"/>
<path d="M5753 4492 c-113 -6 -68 -22 62 -22 l125 0 0 -37 c0 -20 3 -33 7 -29
4 4 7 19 8 34 0 26 3 27 58 30 100 5 61 21 -51 20 -60 0 -117 1 -128 4 -10 2
-47 2 -81 0z"/>
<path d="M5772 4391 c-11 -6 -10 -10 3 -15 12 -4 15 -13 11 -31 -6 -22 -3 -25
20 -25 20 0 24 3 16 13 -5 6 -12 23 -14 36 -3 27 -16 35 -36 22z"/>
<path d="M5897 4391 c-17 -6 -18 -8 -3 -21 13 -10 20 -10 28 -2 16 16 -2 32
-25 23z"/>
<path d="M5960 4392 c0 -18 17 -23 42 -13 16 7 18 10 6 10 -9 1 -23 4 -32 7
-9 3 -16 1 -16 -4z"/>
<path d="M6045 4390 c-3 -5 3 -10 15 -10 12 0 18 5 15 10 -3 6 -10 10 -15 10
-5 0 -12 -4 -15 -10z"/>
<path d="M5885 4337 c-21 -16 -8 -28 23 -21 12 4 19 11 15 20 -6 17 -14 18
-38 1z"/>
<path d="M5688 4323 c12 -2 30 -2 40 0 9 3 -1 5 -23 4 -22 0 -30 -2 -17 -4z"/>
<path d="M6007 4323 c-4 -3 -7 -16 -6 -27 0 -21 1 -21 8 -1 5 13 21 22 47 26
l39 6 -41 2 c-22 0 -44 -2 -47 -6z"/>
<path d="M6051 4251 c-7 -5 -99 -9 -204 -10 -105 -1 -194 -4 -196 -7 -11 -11
18 -13 194 -15 105 -1 195 -6 202 -11 16 -13 33 -1 33 22 0 23 -12 31 -29 21z"/>
<path d="M5990 4169 c-36 -5 -86 -6 -112 -3 -54 7 -128 -3 -128 -17 0 -5 43
-9 95 -9 67 0 95 -4 95 -12 0 -9 3 -9 12 0 7 7 40 12 80 12 68 0 85 10 49 30
-11 5 -21 9 -23 9 -2 -1 -32 -5 -68 -10z"/>
<path d="M5627 4163 c-13 -12 -7 -23 13 -23 11 0 20 7 20 15 0 15 -21 21 -33
8z"/>
<path d="M5720 4111 c0 -12 5 -21 10 -21 6 0 10 6 10 14 0 8 -4 18 -10 21 -5
3 -10 -3 -10 -14z"/>
<path d="M5572 4098 c5 -32 28 -35 28 -4 0 17 -5 26 -16 26 -10 0 -14 -7 -12
-22z"/>
<path d="M5843 4062 c-106 -3 -127 -22 -25 -22 37 0 115 -3 173 -6 76 -4 109
-3 114 6 4 6 5 13 2 16 -6 6 -153 10 -264 6z"/>
<path d="M5622 4048 c7 -19 38 -22 38 -4 0 10 -9 16 -21 16 -12 0 -19 -5 -17
-12z"/>
<path d="M5983 3933 c-32 -12 5 -38 39 -27 15 4 17 9 7 20 -12 14 -24 16 -46
7z"/>
<path d="M5873 3859 c-12 -31 -13 -31 -60 -23 -67 11 -133 11 -130 -1 1 -5 16
-10 34 -10 37 0 56 -15 58 -47 2 -32 29 -29 33 4 5 38 64 57 121 38 39 -13 81
-7 81 12 0 7 -16 9 -44 5 -42 -6 -45 -5 -56 23 -16 38 -23 38 -37 -1z"/>
<path d="M5595 3818 c-3 -18 -5 -42 -4 -53 0 -11 -2 -30 -6 -42 -5 -14 -3 -23
3 -23 18 0 24 19 28 86 4 67 -11 89 -21 32z"/>
<path d="M5688 3753 c12 -2 32 -2 45 0 12 2 2 4 -23 4 -25 0 -35 -2 -22 -4z"/>
<path d="M5852 3719 c-2 -44 -25 -53 -102 -43 -46 6 -114 -7 -189 -37 -29 -12
-18 -26 24 -31 26 -3 31 -8 40 -46 6 -24 17 -47 25 -52 20 -13 93 -13 85 0 -3
6 -21 10 -40 10 -37 0 -45 12 -45 66 0 33 1 34 43 34 53 0 67 -13 67 -62 0
-34 4 -39 38 -54 30 -13 61 -15 170 -11 74 3 136 8 139 11 7 6 -43 56 -56 56
-4 0 -18 -9 -31 -20 -40 -35 -90 -19 -90 30 0 36 30 56 59 41 14 -8 22 -7 31
4 18 21 40 19 40 -5 0 -18 2 -17 27 6 25 24 26 25 7 45 -16 18 -29 20 -114 19
-52 -1 -100 -1 -107 -1 -6 1 -14 18 -16 39 l-4 37 -1 -36z m56 -122 c2 -10 1
-29 -2 -43 -6 -21 -12 -24 -51 -24 -48 0 -63 19 -51 66 6 23 11 25 54 22 36
-2 48 -7 50 -21z"/>
<path d="M5473 3522 c-29 -4 -29 -11 0 -39 l23 -21 13 20 c10 16 20 19 45 15
30 -5 67 6 56 16 -8 7 -112 14 -137 9z"/>
<path d="M5466 3263 c-17 -17 0 -23 61 -23 39 0 63 4 58 9 -12 10 -111 22
-119 14z"/>
<path d="M5993 3257 c-3 -5 -28 -7 -59 -3 -31 4 -55 2 -59 -4 -4 -6 12 -10 39
-10 l46 0 0 -40 c0 -32 4 -40 18 -40 15 0 17 6 14 34 -3 28 0 34 20 39 12 4
34 7 46 7 14 0 22 5 20 12 -5 15 -76 19 -85 5z"/>
<path d="M5630 3250 c0 -5 9 -10 20 -10 11 0 20 5 20 10 0 6 -9 10 -20 10 -11
0 -20 -4 -20 -10z"/>
<path d="M5781 3161 c-10 -6 -9 -10 3 -14 8 -3 18 -2 21 3 8 13 -9 20 -24 11z"/>
<path d="M5566 3147 c-17 -12 -16 -14 9 -25 31 -14 32 -14 37 13 4 24 -21 31
-46 12z"/>
<path d="M5462 3133 c2 -10 11 -19 21 -21 24 -5 21 15 -4 28 -18 10 -20 9 -17
-7z"/>
<path d="M5688 3140 c-1 -5 -1 -35 0 -65 3 -39 8 -55 18 -55 11 0 14 16 14 65
0 49 -3 65 -14 65 -8 0 -16 -4 -18 -10z"/>
<path d="M5995 3099 c-4 -6 -5 -13 -2 -16 7 -7 27 6 27 18 0 12 -17 12 -25 -2z"/>
<path d="M5825 2999 c-27 -4 -59 -10 -70 -13 -11 -2 -23 -5 -27 -5 -4 -1 -5
-8 -1 -16 5 -14 22 -15 117 -9 61 4 139 6 174 6 47 -1 62 2 62 13 0 19 -59 29
-125 21 -32 -4 -56 -2 -60 4 -3 5 -9 9 -13 9 -4 -1 -29 -5 -57 -10z"/>
<path d="M5605 2974 c-14 -11 -34 -14 -67 -11 -56 5 -65 -8 -11 -16 53 -9 153
3 153 18 0 27 -45 32 -75 9z"/>
<path d="M5490 2850 c0 -12 108 -11 116 1 3 5 -22 9 -55 9 -34 0 -61 -4 -61
-10z"/>
<path d="M5480 2515 c0 -13 10 -15 58 -11 31 3 60 5 65 5 4 1 7 6 7 11 0 6
-28 10 -65 10 -52 0 -65 -3 -65 -15z"/>
<path d="M5652 2521 c-8 -4 39 -10 110 -13 173 -7 245 -5 260 10 9 9 -26 12
-172 12 -102 0 -191 -4 -198 -9z"/>
<path d="M2070 7162 c-7 -3 -10 -803 -10 -2368 0 -2093 2 -2365 15 -2370 8 -4
15 -12 15 -20 0 -12 51 -14 303 -15 166 0 311 -4 322 -8 42 -17 -45 -24 -328
-26 -158 -2 -288 -6 -290 -9 -1 -3 148 -7 330 -9 319 -5 334 -4 358 15 l25 19
2 912 3 912 90 6 c98 6 128 -3 146 -44 5 -12 18 -35 29 -52 11 -16 24 -39 30
-50 6 -11 19 -33 30 -50 11 -16 24 -39 30 -50 6 -11 19 -33 30 -50 11 -16 24
-39 30 -50 6 -11 33 -54 61 -95 27 -41 52 -83 55 -93 4 -9 10 -17 15 -17 5 0
14 -10 19 -22 6 -13 19 -36 30 -53 11 -16 24 -39 30 -50 14 -28 31 -54 61 -95
14 -19 29 -42 32 -50 4 -8 16 -28 27 -45 11 -16 23 -38 26 -47 4 -10 10 -18
15 -18 5 0 14 -11 19 -25 5 -14 14 -25 19 -25 5 0 12 -11 15 -25 4 -14 11 -23
15 -20 10 6 2 45 -9 45 -4 0 -10 8 -14 18 -3 9 -15 31 -26 47 -11 17 -24 39
-30 50 -13 24 -27 46 -63 103 -15 23 -37 60 -48 82 -12 22 -25 40 -30 40 -5 0
-9 6 -9 13 0 8 -13 32 -28 53 -16 21 -31 46 -35 54 -4 8 -15 27 -25 42 -9 15
-44 71 -76 125 -33 54 -62 100 -65 103 -8 6 -29 40 -38 60 -4 8 -26 43 -50 78
-24 35 -43 67 -43 71 0 4 -9 16 -20 26 -11 10 -20 24 -20 31 0 7 -6 15 -12 17
-8 3 -5 6 5 6 25 1 77 -27 77 -42 0 -7 7 -22 16 -32 18 -23 71 -107 185 -295
46 -74 86 -137 91 -138 4 -2 8 -9 8 -16 0 -7 9 -23 20 -36 11 -13 20 -29 20
-36 0 -7 4 -14 8 -16 11 -4 172 -273 172 -286 0 -6 4 -12 8 -14 8 -3 102 -154
102 -163 0 -2 14 -24 30 -48 17 -25 30 -48 30 -52 0 -13 53 -75 64 -75 6 0 16
10 21 21 8 18 4 28 -25 59 -19 20 -77 106 -128 191 -51 84 -118 196 -150 247
-31 51 -91 147 -132 213 -41 67 -83 133 -92 148 -10 14 -23 37 -30 51 -7 14
-29 50 -49 80 -19 30 -49 77 -65 103 -16 27 -39 61 -51 76 -12 16 -20 31 -16
35 3 3 34 6 67 6 56 0 98 12 85 24 -7 8 -140 26 -174 24 -16 -1 -67 -1 -112 0
-81 2 -83 3 -83 27 l0 25 197 0 c153 0 194 3 185 12 -14 14 -301 28 -345 16
-16 -4 -96 -7 -178 -7 -152 -1 -183 -7 -194 -42 -5 -14 -27 -16 -153 -17 -289
-1 -265 2 -286 -33 -16 -28 -18 -44 -12 -136 4 -58 12 -116 18 -128 8 -18 7
-29 -6 -46 -12 -18 -15 -36 -10 -74 8 -69 15 -86 23 -55 6 24 11 25 84 28 76
3 77 3 88 -25 11 -27 11 -27 19 -7 5 12 13 25 19 29 14 8 189 9 222 0 38 -10
59 16 59 73 0 26 -3 57 -6 69 -5 19 -9 20 -37 11 -38 -11 -418 -15 -435 -4
-13 8 -17 72 -4 80 4 2 27 2 50 -1 31 -4 43 -11 48 -27 7 -20 8 -20 14 4 9 36
36 37 48 3 l10 -28 11 28 c12 31 48 37 57 10 15 -46 17 -47 26 -15 8 32 30 42
44 21 3 -6 17 -8 33 -4 14 4 51 8 81 10 30 1 65 5 77 9 18 7 24 2 38 -23 14
-28 14 -35 1 -61 -11 -23 -11 -31 -2 -39 7 -6 16 -8 19 -4 4 3 7 63 7 132 0
162 3 171 46 171 38 0 42 -8 15 -31 -17 -16 -19 -49 -26 -640 -4 -343 -9 -626
-11 -628 -2 -3 -10 1 -16 7 -7 7 -27 12 -45 12 -24 0 -33 5 -34 18 -4 63 21
57 -248 58 -193 1 -245 4 -252 15 -14 23 -23 1 -24 -64 -1 -35 -5 -69 -9 -76
-5 -7 -1 -32 9 -56 11 -31 13 -49 7 -62 -6 -10 -9 -93 -8 -186 0 -92 -2 -167
-5 -167 -21 0 -29 37 -28 136 1 335 0 1317 -2 1364 -2 30 -2 76 -1 102 1 26 3
703 5 1505 1 802 7 1468 11 1481 18 49 28 20 22 -67 -6 -93 -7 -91 38 -129 17
-14 164 -14 182 0 13 10 195 5 211 -5 21 -13 23 10 3 28 -16 15 -32 17 -92 13
-40 -3 -83 -2 -95 3 -17 6 -25 4 -31 -8 -15 -26 -44 -8 -40 24 2 23 9 29 38
33 l35 6 -30 7 c-40 9 -134 12 -142 4 -3 -4 9 -7 28 -7 38 0 59 -15 59 -41 0
-19 -28 -29 -88 -29 -48 0 -61 16 -44 56 7 15 8 24 2 24 -6 0 -10 16 -10 35
l0 34 158 0 c86 -1 271 0 410 1 251 2 252 2 252 24 0 43 -19 46 -382 45 -488
-1 -478 -2 -478 16 0 14 73 15 673 11 493 -3 697 -7 767 -17 52 -8 100 -17
106 -21 6 -4 30 -10 52 -14 23 -4 42 -10 42 -15 0 -9 -8 -10 -69 -13 -42 -2
-46 -10 -23 -57 16 -32 18 -45 9 -59 -8 -14 -8 -22 2 -34 20 -24 37 -19 36 12
0 29 2 29 170 44 26 3 30 6 27 31 -2 17 2 27 11 27 14 0 183 -85 206 -103 14
-12 48 -32 71 -43 65 -30 278 -242 299 -297 2 -5 19 -23 37 -40 19 -16 34 -35
34 -42 0 -7 7 -18 15 -25 8 -7 15 -23 15 -35 0 -12 7 -28 15 -35 8 -7 15 -22
15 -34 1 -11 7 -32 15 -46 8 -14 14 -39 15 -55 0 -17 5 -36 11 -42 5 -5 13
-37 16 -69 3 -32 9 -66 14 -75 4 -8 11 -134 14 -280 5 -223 4 -272 -9 -314 -9
-27 -16 -63 -16 -79 0 -28 -21 -102 -47 -163 -7 -17 -13 -36 -13 -41 0 -6 -7
-23 -15 -39 -8 -15 -30 -62 -50 -103 -46 -95 -48 -98 -120 -195 -62 -83 -171
-197 -199 -208 -9 -4 -16 -10 -16 -14 0 -5 -20 -19 -45 -33 -25 -14 -45 -28
-45 -32 0 -5 -8 -8 -19 -8 -10 0 -24 -7 -31 -15 -7 -8 -20 -15 -29 -15 -9 0
-25 -6 -36 -13 -21 -14 -91 -34 -135 -39 -31 -4 -39 -45 -15 -82 14 -21 22
-24 48 -19 18 3 41 11 52 18 11 6 32 15 48 19 15 3 27 11 27 16 0 6 8 10 18
10 9 1 35 12 57 25 22 14 50 29 63 35 12 5 22 14 22 20 0 5 5 10 11 10 39 0
289 250 289 289 0 6 4 11 9 11 10 0 15 9 61 97 14 26 31 54 38 61 6 7 12 19
12 27 0 7 8 28 17 47 9 18 22 45 30 60 7 14 13 37 13 50 0 13 4 28 9 34 5 5
14 36 20 69 6 33 15 80 21 105 5 25 9 189 10 366 0 256 -3 331 -15 370 -8 27
-15 63 -15 79 0 17 -7 43 -15 59 -8 15 -15 37 -15 48 0 11 -6 32 -13 46 -8 15
-22 45 -32 67 -9 22 -21 47 -26 55 -5 8 -12 22 -16 30 -3 8 -18 31 -33 50 -15
19 -29 40 -31 47 -10 31 -158 187 -229 243 -25 19 -47 37 -50 40 -11 12 -95
65 -127 79 -11 5 -24 15 -28 20 -3 6 -14 11 -24 11 -10 0 -24 7 -31 15 -7 8
-20 15 -30 15 -10 0 -23 7 -30 15 -7 8 -21 15 -30 15 -10 0 -31 6 -47 14 -43
21 -93 37 -145 46 -26 5 -56 13 -67 19 -11 6 -36 11 -56 11 -20 0 -60 7 -88
15 -43 11 -180 15 -770 17 -394 2 -722 2 -727 0z m1818 -144 c7 -7 12 -18 12
-25 0 -16 -32 -17 -47 -2 -7 7 -13 2 -20 -18 -10 -26 -13 -28 -57 -25 -45 4
-46 5 -46 37 0 34 0 34 53 38 28 2 61 4 73 5 11 1 25 -3 32 -10z m312 -2478
c0 -5 -10 -10 -22 -10 -19 0 -20 2 -8 10 19 13 30 13 30 0z m-50 -30 c0 -5 -9
-10 -21 -10 -11 0 -17 5 -14 10 3 6 13 10 21 10 8 0 14 -4 14 -10z m-50 -29
c0 -11 -40 -22 -52 -15 -5 3 -6 10 -3 15 8 12 55 12 55 0z m-60 -30 c0 -11
-49 -21 -55 -11 -2 4 -2 10 2 14 10 9 53 7 53 -3z m-70 -30 c0 -11 -30 -19
-48 -14 -6 3 -10 9 -6 14 7 12 54 12 54 0z m-1067 -116 c13 -32 -18 -43 -106
-38 -87 6 -111 -3 -87 -32 6 -8 10 -39 8 -75 l-3 -63 -270 -1 -270 -1 0 35 0
35 90 -4 c50 -1 95 -7 102 -12 7 -6 12 -6 15 0 4 11 238 18 255 8 23 -14 26
16 3 33 -20 15 -26 15 -49 4 -20 -10 -75 -13 -216 -11 l-190 3 -9 27 c-14 38
1 49 55 40 24 -5 114 -6 199 -3 147 5 174 2 228 -23 16 -8 26 -7 34 1 9 9 7
13 -8 18 -30 11 -54 35 -54 55 0 16 13 18 134 18 109 1 135 -2 139 -14z m30
-76 c-7 -7 -21 -7 -44 -1 l-34 10 45 1 c31 1 41 -2 33 -10z m-469 -314 c9 -24
-18 -43 -71 -48 -54 -6 -63 0 -63 43 0 16 9 19 53 22 61 4 74 1 81 -17z m-158
1 c3 -8 1 -24 -6 -35 -9 -17 -20 -21 -64 -21 -56 0 -66 8 -66 51 0 17 8 19 65
19 48 0 67 -4 71 -14z m331 -2 c9 -23 -11 -50 -33 -47 -26 3 -53 4 -89 1 -31
-3 -43 16 -31 48 8 22 144 20 153 -2z m-332 -894 c5 -8 11 -8 20 0 8 6 31 10
52 8 33 -3 38 -7 41 -30 2 -18 -2 -28 -10 -29 -31 -3 -74 4 -84 12 -6 5 -14 5
-20 0 -5 -5 -33 -11 -63 -12 -58 -3 -81 12 -68 45 5 12 20 16 66 16 33 0 63
-5 66 -10z m315 -5 c23 -27 -20 -64 -51 -44 -8 5 -38 6 -66 2 -43 -5 -54 -3
-59 11 -14 37 2 46 85 44 51 0 85 -5 91 -13z m-402 -110 c3 -37 -11 -60 -32
-52 -16 6 -23 67 -9 81 16 15 38 0 41 -29z m140 23 c7 -7 12 -24 12 -39 0 -25
-3 -26 -62 -32 -34 -3 -66 -3 -70 -1 -4 3 -8 19 -8 35 0 34 28 52 43 27 9 -13
12 -13 29 4 21 21 39 23 56 6z m145 -5 c4 -2 7 -18 7 -34 0 -30 -1 -30 -47
-27 -41 3 -48 6 -51 26 -5 36 16 54 52 46 17 -3 34 -8 39 -11z m226 11 c24 -5
31 -12 31 -30 0 -29 -30 -46 -73 -42 -23 2 -33 9 -38 28 -4 14 -7 20 -8 13 -2
-23 -33 -43 -67 -43 -32 0 -34 2 -34 36 l0 35 55 -2 c30 -1 58 0 62 4 8 9 31
9 72 1z m41 -230 c0 -149 -12 -185 -25 -72 -8 77 -29 115 -51 97 -13 -11 -12
-16 11 -37 23 -21 26 -30 20 -56 -5 -17 -7 -46 -6 -63 1 -30 -2 -33 -29 -33
-17 0 -33 7 -39 18 -9 16 -10 16 -16 0 -8 -21 -73 -25 -106 -7 -15 7 -24 7
-34 -1 -7 -6 -35 -10 -62 -8 -46 3 -48 4 -48 33 l0 30 115 2 c63 0 121 -2 129
-7 13 -7 41 9 41 23 0 22 -250 39 -284 20 -12 -7 -33 -7 -60 -1 -22 5 -66 8
-96 6 -53 -3 -55 -2 -58 25 -2 15 0 27 5 27 4 0 116 1 247 3 181 1 240 5 244
14 7 22 -28 27 -90 14 -73 -15 -88 -6 -88 51 0 33 3 39 16 34 42 -16 65 -16
110 -1 31 10 61 14 86 10 30 -5 39 -3 44 9 17 43 24 3 24 -130z m-315 55 l0
-34 -80 4 c-44 2 -107 4 -140 5 -57 1 -60 2 -60 26 l0 25 130 5 c72 3 135 5
140 5 6 -1 10 -17 10 -36z m-111 -155 c9 -4 16 -18 16 -34 l0 -28 -90 -1 c-87
-1 -90 -1 -96 23 -3 14 -3 30 1 35 7 12 142 15 169 5z m426 -108 c0 -49 -12
-80 -23 -59 -7 15 5 113 14 113 5 0 9 -24 9 -54z m-524 -12 c3 -12 3 -28 -1
-33 -9 -16 -61 -13 -74 3 -11 14 -5 46 11 57 19 13 58 -4 64 -27z m90 11 c8
-34 -1 -55 -25 -55 -24 0 -36 32 -21 60 15 28 38 25 46 -5z m112 3 c20 -17 14
-45 -10 -52 -48 -12 -58 -8 -58 27 0 19 3 37 7 40 8 8 42 -1 61 -15z m160 -27
c-2 -19 -9 -27 -28 -29 -36 -3 -54 11 -45 37 8 27 45 43 63 28 7 -6 12 -22 10
-36z m99 27 c38 -35 30 -50 -24 -46 -42 3 -48 6 -51 27 -6 43 38 54 75 19z
m-199 -36 c2 -14 -2 -22 -12 -22 -19 0 -28 14 -20 35 9 21 28 14 32 -13z"/>
<path d="M3050 7080 c0 -5 13 -10 29 -10 17 0 33 5 36 10 4 6 -8 10 -29 10
-20 0 -36 -4 -36 -10z"/>
<path d="M3202 7081 c4 -13 18 -16 19 -4 0 4 -5 9 -11 12 -7 2 -11 -2 -8 -8z"/>
<path d="M3565 7050 c-4 -6 11 -10 37 -10 31 0 39 3 28 10 -20 13 -57 13 -65
0z"/>
<path d="M2430 6958 c0 -19 59 -33 74 -18 7 7 0 10 -20 10 -16 0 -35 5 -42 12
-9 9 -12 9 -12 -4z"/>
<path d="M2623 6943 c-12 -4 -10 -9 23 -61 1 -2 13 8 27 22 14 14 23 27 19 29
-15 9 -58 15 -69 10z"/>
<path d="M3950 6940 c0 -5 14 -10 30 -10 17 0 30 5 30 10 0 6 -13 10 -30 10
-16 0 -30 -4 -30 -10z"/>
<path d="M2875 6930 c3 -5 21 -10 38 -10 24 0 28 3 17 10 -20 13 -63 13 -55 0z"/>
<path d="M2753 6923 c9 -2 25 -2 35 0 9 3 1 5 -18 5 -19 0 -27 -2 -17 -5z"/>
<path d="M4040 6890 c0 -12 -10 -24 -24 -30 -17 -6 -26 -18 -28 -37 l-3 -28
-95 0 -95 0 0 30 c0 17 -4 31 -10 32 -5 2 -10 -15 -10 -37 0 -22 3 -40 8 -40
4 0 70 0 147 0 l141 0 -3 38 c-3 33 0 37 22 40 38 5 47 20 16 28 -14 3 -26 10
-26 15 0 5 -9 9 -20 9 -13 0 -20 -7 -20 -20z"/>
<path d="M3890 6885 c-7 -9 -21 -13 -31 -10 -15 5 -19 1 -19 -19 0 -31 14 -33
57 -6 22 13 31 25 27 35 -8 19 -18 19 -34 0z"/>
<path d="M4200 6813 c0 -7 -9 -15 -21 -18 l-21 -7 21 -15 c12 -8 21 -23 21
-33 0 -28 12 -31 39 -9 l24 20 -24 27 c-13 15 -27 31 -31 37 -5 5 -8 5 -8 -2z"/>
<path d="M2482 6738 c-17 -8 -22 -18 -18 -32 3 -12 8 -51 12 -87 6 -64 6 -67
-17 -75 -13 -4 -40 -8 -59 -9 -120 -3 -150 -6 -150 -15 0 -6 66 -9 166 -9 98
-1 171 -5 179 -11 6 -5 15 -7 18 -3 10 9 114 24 162 23 22 0 53 7 69 15 15 8
34 15 41 15 16 0 15 81 0 92 -5 4 -29 8 -52 8 -54 0 -73 8 -73 30 0 9 -9 29
-21 44 -20 25 -23 26 -127 25 -59 0 -117 -5 -130 -11z m243 -53 l0 -30 -98 -9
c-106 -9 -127 -3 -127 39 0 12 2 24 4 26 2 2 53 4 113 4 l108 0 0 -30z m-171
-61 c10 -4 16 -18 16 -40 0 -19 5 -34 10 -34 6 0 10 -5 10 -12 0 -9 -3 -9 -12
0 -7 7 -25 12 -40 12 -21 0 -29 6 -34 25 -11 46 8 65 50 49z m302 -7 c11 -11
-9 -62 -24 -61 -6 1 -56 2 -111 3 -88 1 -99 3 -104 20 -8 30 5 40 58 43 84 5
174 3 181 -5z"/>
<path d="M2305 6730 c-4 -6 10 -10 34 -10 23 0 41 5 41 10 0 6 -15 10 -34 10
-19 0 -38 -4 -41 -10z"/>
<path d="M2775 6730 c3 -5 15 -10 26 -10 10 0 19 5 19 10 0 6 -12 10 -26 10
-14 0 -23 -4 -19 -10z"/>
<path d="M2870 6730 c0 -5 23 -10 50 -10 28 0 50 5 50 10 0 6 -22 10 -50 10
-27 0 -50 -4 -50 -10z"/>
<path d="M3807 6692 c-3 -4 3 -17 12 -29 16 -19 28 -21 112 -22 89 0 95 1 105
24 7 13 9 26 6 30 -8 8 -230 6 -235 -3z"/>
<path d="M4085 6691 c-17 -7 -16 -9 10 -14 17 -3 37 -1 45 4 8 5 10 9 3 9 -6
0 -17 2 -25 4 -7 3 -22 1 -33 -3z"/>
<path d="M2989 6658 c-42 -7 -69 -22 -52 -29 18 -8 433 3 433 11 0 5 -15 12
-32 14 -54 9 -304 12 -349 4z"/>
<path d="M3746 6652 c-3 -4 8 -13 25 -19 32 -13 40 0 10 17 -24 12 -28 12 -35
2z"/>
<path d="M2927 6557 c-10 -10 -17 -20 -15 -22 2 -1 28 -7 58 -12 55 -9 54 -9
-57 -17 -62 -4 -115 -12 -118 -16 -3 -5 154 -10 348 -12 265 -2 358 -6 369
-15 8 -7 36 -16 62 -19 25 -4 46 -10 46 -14 0 -4 12 -11 26 -14 14 -4 43 -18
65 -31 39 -25 59 -31 59 -17 0 9 -79 60 -130 83 -59 28 -160 48 -275 56 -80 5
-101 9 -77 14 37 8 49 16 38 26 -4 4 -86 7 -182 6 -124 -1 -178 2 -187 11 -9
9 -16 8 -30 -7z"/>
<path d="M4490 6512 c0 -10 11 -42 25 -70 39 -81 36 -89 -34 -88 -55 1 -82 -7
-69 -19 3 -3 41 -7 84 -8 l79 -2 1 -39 c0 -25 6 -41 17 -48 11 -6 17 -22 17
-48 0 -21 5 -40 10 -42 10 -3 23 -69 37 -186 4 -40 2 -56 -8 -62 -17 -11 -10
-19 22 -22 23 -3 24 -1 21 56 -1 32 -9 68 -17 79 -10 14 -15 45 -15 87 0 36
-4 70 -9 76 -5 5 -14 29 -19 54 -20 85 -37 135 -49 148 -7 7 -13 22 -13 31 0
10 -7 24 -15 31 -8 7 -15 20 -15 30 0 10 -7 20 -15 24 -8 3 -15 12 -15 21 0 8
-4 15 -10 15 -5 0 -10 -8 -10 -18z"/>
<path d="M2705 6461 c-7 -24 -60 -38 -80 -21 -9 8 -25 9 -42 4 -16 -4 -112 -6
-214 -5 -115 2 -189 -1 -193 -7 -8 -13 110 -25 207 -22 111 4 110 4 102 -29
-5 -24 -3 -29 17 -33 13 -3 32 -9 42 -14 16 -6 15 -1 -8 29 -35 45 -28 49 80
45 l79 -3 3 -32 c2 -22 7 -30 17 -27 10 4 14 23 13 65 -1 61 -12 85 -23 50z"/>
<path d="M2848 6433 l-38 -4 0 -70 c0 -53 3 -69 14 -69 9 0 16 12 18 28 l3 27
304 3 c194 1 308 -1 316 -8 7 -5 34 -13 61 -17 27 -3 55 -12 62 -20 7 -7 24
-13 37 -13 12 0 25 -7 29 -15 3 -8 12 -15 21 -15 8 0 23 -8 33 -18 10 -10 27
-25 38 -33 57 -42 128 -146 149 -218 5 -16 10 -20 15 -11 4 7 4 22 1 34 -19
54 -34 86 -42 86 -5 0 -9 6 -9 14 0 18 -118 146 -135 146 -7 0 -15 7 -19 15
-3 8 -14 15 -24 15 -11 0 -25 7 -32 15 -7 8 -23 15 -37 15 -13 0 -31 7 -39 15
-10 9 -34 15 -64 15 -30 0 -50 5 -52 13 -4 9 -78 13 -308 17 -230 4 -304 8
-308 18 -3 9 63 12 307 12 296 0 396 10 239 24 -75 6 -473 5 -540 -1z"/>
<path d="M2157 6394 c-10 -10 -9 -122 2 -128 5 -3 11 15 14 40 5 49 -4 100
-16 88z"/>
<path d="M3505 6390 c3 -5 22 -10 41 -10 19 0 34 5 34 10 0 6 -18 10 -41 10
-24 0 -38 -4 -34 -10z"/>
<path d="M4057 6383 c-15 -14 -7 -43 12 -43 14 0 17 6 13 25 -4 25 -13 31 -25
18z"/>
<path d="M4262 6355 l-12 -25 63 1 62 0 -39 15 c-21 8 -44 18 -51 24 -8 7 -15
3 -23 -15z"/>
<path d="M3615 6360 c3 -5 13 -10 21 -10 8 0 14 5 14 10 0 6 -9 10 -21 10 -11
0 -17 -4 -14 -10z"/>
<path d="M2296 6341 c-3 -5 0 -11 8 -14 15 -6 26 1 26 15 0 11 -27 10 -34 -1z"/>
<path d="M2610 6335 c0 -17 2 -18 24 -9 18 7 12 24 -10 24 -8 0 -14 -7 -14
-15z"/>
<path d="M3730 6310 c0 -6 8 -14 18 -17 20 -8 142 -130 142 -143 0 -5 6 -15
13 -22 12 -13 33 -55 60 -118 25 -58 39 -148 44 -275 9 -242 -69 -454 -219
-597 -55 -52 -156 -118 -182 -118 -9 0 -16 -4 -16 -9 0 -10 -63 -27 -155 -43
-33 -5 -74 -14 -91 -19 -17 -5 -140 -9 -273 -9 -226 0 -245 1 -271 20 -15 11
-30 30 -34 43 -5 23 -7 23 -120 19 -134 -5 -161 0 -170 30 l-6 23 -18 -23
c-10 -13 -25 -23 -33 -22 -43 7 -189 -1 -189 -10 0 -6 47 -10 120 -10 l120 0
0 -35 c0 -22 -6 -37 -17 -43 -23 -14 97 -27 202 -23 44 2 98 2 120 1 144 -8
593 -1 643 9 195 43 291 91 401 201 100 100 111 113 111 128 0 5 4 12 8 14 5
2 20 29 35 61 25 55 27 57 64 56 21 -1 30 -3 21 -6 -10 -2 -35 -30 -55 -61
-21 -31 -41 -59 -45 -62 -4 -3 -12 -27 -18 -54 -15 -66 -3 -80 46 -55 41 20
60 17 68 -14 6 -22 6 -21 29 7 26 32 59 30 78 -6 11 -20 11 -20 23 3 10 21 19
24 66 24 53 0 54 -1 63 -35 l10 -35 7 30 c4 17 9 37 11 45 3 13 -8 14 -73 11
-76 -3 -77 -3 -84 23 -11 46 0 56 65 56 47 0 62 -4 70 -17 10 -17 10 -17 11 0
0 11 8 17 25 17 29 0 43 -36 25 -69 -7 -14 -7 -21 0 -21 20 0 45 36 46 68 1
31 0 32 -37 32 -35 0 -69 20 -69 40 0 5 -10 12 -21 15 -16 5 -28 0 -46 -19
-13 -14 -32 -26 -41 -27 -159 -9 -170 -9 -175 5 -3 8 -3 24 0 36 5 19 11 22
44 17 22 -3 42 -1 45 4 3 5 32 9 65 9 32 0 59 4 59 8 0 11 70 7 103 -6 20 -9
34 -9 55 0 21 9 23 12 10 15 -30 7 -20 23 13 23 23 0 30 -4 26 -15 -4 -8 -2
-17 3 -20 6 -4 10 -26 10 -51 0 -44 0 -44 35 -44 30 0 35 3 35 23 0 12 -7 33
-16 45 -9 13 -14 24 -13 26 32 24 58 36 77 36 22 0 23 -3 17 -42 -4 -24 -11
-47 -16 -52 -5 -6 -9 -27 -9 -47 0 -21 -4 -40 -9 -44 -11 -6 -61 -108 -61
-124 0 -5 -3 -11 -7 -13 -5 -1 -17 -21 -28 -43 -19 -39 -54 -95 -66 -105 -3
-3 -10 -13 -15 -22 -9 -16 -13 -15 -43 13 -22 19 -39 28 -50 24 -9 -4 -54 -9
-99 -11 -91 -5 -132 9 -132 45 0 10 -6 23 -13 29 -14 12 -86 18 -162 13 -75
-5 -20 -19 78 -20 l77 -1 0 -34 c0 -19 -4 -37 -9 -40 -4 -3 -56 -6 -115 -8
-58 -1 -106 -5 -106 -9 0 -12 23 -17 56 -12 23 4 37 0 51 -14 35 -35 100 -40
72 -6 -9 10 -8 13 4 13 16 0 20 -15 32 -102 l6 -48 -43 -2 c-24 -1 -68 0 -99
1 -41 2 -59 -1 -69 -14 -12 -14 -12 -18 1 -26 18 -11 43 -11 98 2 32 7 47 6
58 -2 11 -10 26 -10 66 1 63 15 84 29 65 41 -7 5 -23 9 -35 9 -21 0 -22 4 -20
78 l2 77 60 1 c33 0 65 -3 72 -8 6 -5 14 -5 17 0 8 14 129 13 138 -1 12 -18
10 -25 -13 -46 -19 -18 -23 -18 -37 -5 -10 10 -25 14 -43 10 -18 -3 -34 0 -44
10 -13 14 -15 13 -15 -6 0 -25 -25 -37 -44 -21 -14 12 -46 5 -46 -10 0 -14 36
-28 58 -22 13 3 22 1 22 -6 0 -6 5 -11 10 -11 6 0 10 9 10 19 0 11 4 23 10 26
16 10 80 -6 80 -20 0 -8 -33 -44 -73 -80 -68 -61 -97 -83 -137 -101 -8 -4 -22
-13 -30 -20 -19 -16 -42 -18 -198 -16 -115 2 -124 3 -129 22 -4 16 -8 18 -19
9 -8 -6 -14 -18 -14 -25 0 -23 -42 -64 -67 -64 -13 0 -23 -4 -23 -10 0 -5 13
-10 29 -10 59 0 76 -24 51 -70 -9 -17 -18 -19 -57 -13 -34 4 -44 3 -39 -5 4
-7 28 -12 54 -13 97 -1 141 -14 172 -50 16 -19 30 -41 30 -49 0 -8 12 -33 25
-55 14 -22 28 -46 31 -53 3 -7 19 -26 35 -43 16 -17 29 -37 29 -44 0 -6 12
-30 28 -51 15 -22 36 -55 46 -74 11 -19 25 -39 32 -43 8 -4 18 -25 24 -47 7
-25 18 -41 31 -45 21 -7 50 -61 43 -80 -2 -5 6 -15 18 -20 13 -6 30 -24 38
-42 8 -17 26 -40 39 -50 40 -32 19 -40 -91 -38 -93 2 -103 4 -111 23 -17 38
-3 52 47 46 l45 -7 -2 49 -2 49 -45 5 -45 5 3 41 c1 27 -3 46 -13 54 -8 7 -15
24 -15 39 0 19 -14 39 -50 71 -55 49 -76 56 -73 25 2 -29 -14 -35 -94 -35
-139 0 -68 -45 76 -49 103 -2 114 -5 109 -28 -2 -12 -28 -15 -141 -18 -85 -1
-140 1 -144 8 -7 11 -42 -49 -43 -75 0 -9 13 -27 29 -40 22 -19 27 -30 24 -55
-5 -29 -3 -30 42 -37 59 -7 162 -6 194 3 19 5 21 8 10 18 -8 6 -23 13 -34 16
-16 4 -14 5 7 6 15 0 30 6 33 11 9 14 78 12 99 -3 16 -12 16 -14 -9 -27 -15
-8 -31 -22 -36 -32 -5 -10 -15 -18 -21 -18 -6 0 -21 -11 -33 -24 -22 -24 -27
-25 -141 -23 l-119 2 -3 33 c-3 33 -4 33 -23 16 -20 -18 -26 -44 -9 -44 6 0
10 -7 10 -15 0 -8 -4 -15 -10 -15 -5 0 -10 -9 -10 -20 0 -27 23 -25 35 3 7 14
19 22 35 22 22 0 26 -5 30 -39 4 -34 10 -41 35 -48 17 -5 68 -7 115 -3 94 6
116 -2 122 -45 4 -23 5 -22 14 10 8 26 16 36 35 38 13 1 50 8 82 14 53 11 58
14 52 35 -4 18 0 24 21 29 34 9 74 -10 74 -35 0 -15 -8 -21 -32 -23 -44 -4
-47 -25 -3 -24 19 1 35 4 35 9 0 15 28 6 34 -10 9 -25 32 -64 43 -72 4 -3 17
-22 27 -41 11 -19 31 -46 45 -60 14 -14 42 -57 61 -95 19 -39 38 -72 43 -73 4
-2 7 -9 7 -15 0 -7 16 -27 35 -46 19 -19 35 -38 35 -42 0 -5 -19 -10 -42 -10
-48 -2 -234 -7 -468 -13 -85 -2 -172 -4 -192 -5 -39 -1 -44 -6 -30 -29 6 -9
20 -10 54 -3 26 4 52 5 59 0 8 -4 19 -3 26 3 9 7 22 7 43 -2 32 -13 40 -37 15
-46 -21 -9 -19 -24 4 -24 15 0 21 8 23 32 3 28 8 33 38 40 19 4 43 5 53 2 24
-7 22 -41 -4 -54 -27 -15 -18 -23 26 -23 42 0 51 6 30 23 -21 17 -19 37 6 50
30 17 52 -5 45 -44 -4 -16 -12 -34 -19 -39 -8 -6 -6 -7 6 -3 10 3 23 6 29 6 6
0 8 12 4 31 -3 17 -1 40 5 51 10 18 12 18 28 4 15 -14 18 -13 30 5 11 19 14
20 30 5 10 -9 29 -16 43 -16 28 0 41 -19 27 -41 -14 -23 -11 -29 17 -29 21 0
25 4 19 18 -3 9 -7 21 -8 25 -3 15 29 31 48 23 13 -5 16 -13 11 -40 -6 -32 -5
-34 29 -40 19 -4 40 -4 45 -1 20 12 9 34 -17 37 -22 2 -28 8 -28 27 0 13 8 29
17 35 23 14 71 -29 62 -56 -4 -12 4 -26 25 -44 17 -14 31 -35 31 -45 0 -11 7
-22 15 -25 8 -4 15 -10 15 -15 0 -12 42 -73 53 -77 4 -2 7 -8 7 -13 0 -9 37
-67 51 -79 3 -3 16 -23 29 -45 13 -22 26 -42 30 -45 12 -11 90 -134 90 -143 0
-5 -10 -6 -22 -2 -13 4 -189 6 -393 5 -279 -1 -377 1 -397 11 -16 7 -28 16
-28 20 0 4 -6 14 -14 21 -22 22 -79 128 -73 135 4 3 86 5 184 5 186 0 226 3
202 19 -8 5 -81 9 -162 9 l-148 0 3 36 3 36 159 3 c145 4 177 7 165 19 -3 4
-191 6 -334 5 -11 0 -45 4 -75 9 -37 6 -59 6 -68 -1 -15 -12 -46 15 -57 51 -6
21 -4 22 47 22 29 0 58 4 65 8 6 4 53 5 105 2 98 -6 122 -4 112 11 -3 5 -86 9
-184 9 -98 0 -185 3 -194 6 -18 7 -22 59 -5 70 6 3 16 1 22 -5 24 -24 91 -3
80 25 -5 15 -7 15 -15 -1 -8 -12 -18 -15 -46 -11 -77 12 -132 16 -132 9 0 -3
10 -20 23 -37 13 -17 27 -38 30 -46 4 -8 16 -28 27 -45 11 -16 24 -39 29 -50
5 -11 23 -36 40 -54 17 -18 31 -40 31 -48 0 -19 29 -73 39 -73 5 0 11 -8 15
-17 3 -10 15 -31 26 -48 11 -16 23 -37 27 -45 4 -8 26 -34 49 -58 l43 -42 383
0 c361 0 444 -6 393 -27 -11 -4 -194 -8 -406 -8 -314 0 -391 3 -412 14 -15 8
-27 20 -27 28 0 7 -4 13 -10 13 -17 0 -11 -15 18 -43 l27 -26 416 -2 c390 -2
417 -1 445 17 37 23 44 33 44 62 0 19 -28 70 -50 92 -3 3 -9 12 -15 22 -21 34
-94 144 -104 155 -6 7 -11 15 -11 18 0 6 -41 66 -51 75 -3 3 -9 12 -13 20 -12
26 -66 110 -76 120 -7 7 -28 40 -40 65 -6 11 -18 32 -28 47 -37 57 -162 244
-169 254 -17 22 -33 50 -43 72 -5 12 -14 22 -20 22 -5 0 -10 5 -10 10 0 9 -35
65 -50 80 -7 7 -29 42 -37 60 -4 8 -67 104 -140 214 -73 109 -133 201 -133
203 0 3 -13 22 -30 43 -16 21 -30 41 -30 45 0 4 -13 24 -28 44 -16 20 -32 43
-35 51 -12 25 -89 141 -112 166 -5 6 -17 22 -25 34 -8 13 -23 30 -32 39 -10 8
-18 26 -18 38 0 22 -3 23 -41 17 -49 -8 -61 5 -46 46 9 23 7 31 -7 45 -32 32
-14 40 100 42 101 1 110 0 126 -20 16 -20 17 -21 36 -4 10 9 28 17 40 17 11 0
27 6 34 13 7 7 21 16 32 20 74 28 220 156 316 276 77 96 200 331 200 380 0 11
5 23 10 26 6 3 10 18 10 32 0 14 6 39 14 56 26 58 59 269 54 347 -2 32 -7 45
-18 45 -12 0 -17 -20 -22 -90 -4 -49 -11 -124 -15 -165 l-8 -75 -105 0 -105 0
0 35 0 35 80 3 c100 3 109 6 95 31 -5 11 -10 38 -10 60 0 52 -17 62 -26 16 -4
-24 -14 -39 -28 -44 -11 -4 -113 -7 -226 -6 -160 1 -208 -1 -218 -12 -21 -20
-42 -16 -43 10 -1 12 0 85 1 162 2 166 -19 273 -76 388 -8 16 -14 37 -14 48 0
10 -6 19 -13 19 -7 0 -24 17 -37 38 -23 36 -59 62 -85 62 -6 0 -22 13 -35 30
-24 28 -60 40 -60 20z m345 -850 c8 -39 0 -50 -36 -50 -29 0 -33 7 -29 45 5
44 56 48 65 5z m317 5 c21 -46 2 -53 -146 -54 -145 -1 -164 5 -152 52 6 24 7
24 146 26 l140 1 12 -25z m-347 -255 c0 -33 -2 -35 -35 -35 -33 0 -35 2 -38
38 l-3 38 38 -3 c36 -3 38 -5 38 -38z m103 11 c8 -23 7 -32 -3 -41 -33 -27
-68 12 -51 56 10 25 43 16 54 -15z m-1430 -244 c6 -5 12 -17 12 -28 0 -18 -8
-19 -110 -19 -120 0 -134 7 -113 53 10 22 13 22 104 12 52 -5 100 -14 107 -18z
m1162 -1122 l105 0 0 -40 c0 -34 -3 -40 -20 -37 -11 2 -66 4 -123 5 -115 2
-131 11 -112 62 8 21 14 25 28 19 9 -5 64 -9 122 -9z m168 -38 c3 -22 -1 -27
-18 -27 -26 0 -37 25 -20 45 18 22 34 13 38 -18z m90 -230 c16 -11 15 -29 -3
-53 -15 -19 -15 -19 -34 3 -15 18 -21 20 -30 9 -8 -9 -45 -13 -137 -13 -119 0
-126 1 -134 21 -4 12 -6 26 -4 31 5 12 323 14 342 2z m38 -865 c15 -10 24 -40
18 -57 -7 -17 -68 -20 -107 -6 -27 10 -40 44 -25 59 12 12 98 14 114 4z"/>
<path d="M4090 6259 c-13 -6 -40 -8 -60 -5 -19 3 -53 1 -75 -3 -38 -8 -38 -9
-9 -10 17 0 37 -8 44 -16 12 -14 15 -14 30 0 22 20 46 19 54 -2 6 -14 9 -14
27 5 11 12 24 22 30 22 6 0 7 5 4 10 -7 12 -12 12 -45 -1z"/>
<path d="M4320 6260 c-25 -5 -72 -10 -105 -11 -58 -3 -59 -3 -13 -6 41 -4 49
-8 54 -29 10 -41 -1 -51 -68 -59 -78 -9 -105 -9 -140 0 -36 9 -37 -7 -2 -30
23 -15 91 -22 174 -18 14 1 54 1 90 1 94 -1 152 11 157 33 6 23 11 23 56 4 35
-14 67 -12 67 5 0 5 -15 10 -32 12 -31 3 -33 5 -36 47 -3 38 -6 42 -25 37 -11
-3 -26 -1 -32 4 -18 15 -94 20 -145 10z m150 -58 l0 -39 -87 1 c-84 1 -88 2
-91 24 -6 44 2 48 92 50 l86 2 0 -38z"/>
<path d="M2805 6250 c-3 -5 -6 -252 -5 -548 0 -296 -3 -542 -7 -545 -3 -4 -12
-2 -19 4 -9 8 -11 5 -7 -9 2 -11 0 -23 -6 -26 -5 -4 -67 -9 -136 -11 -69 -3
-130 -7 -136 -10 -33 -21 15 -30 198 -38 l81 -4 7 33 c5 30 8 32 30 24 16 -6
26 -5 32 3 4 7 7 265 5 575 -2 477 -5 562 -17 562 -7 0 -17 -4 -20 -10z"/>
<path d="M2205 6240 c-4 -6 8 -10 30 -10 22 0 34 4 30 10 -3 6 -17 10 -30 10
-13 0 -27 -4 -30 -10z"/>
<path d="M2450 6240 c0 -5 7 -10 15 -10 8 0 15 5 15 10 0 6 -7 10 -15 10 -8 0
-15 -4 -15 -10z"/>
<path d="M2565 6240 c-3 -5 3 -10 15 -10 12 0 18 5 15 10 -3 6 -10 10 -15 10
-5 0 -12 -4 -15 -10z"/>
<path d="M2650 6240 c0 -6 12 -16 26 -22 21 -10 27 -9 35 3 15 24 10 29 -26
29 -19 0 -35 -5 -35 -10z"/>
<path d="M2601 6057 c0 -10 -15 -24 -33 -32 -39 -16 -28 -22 57 -28 65 -5 85
-1 85 15 0 6 -13 8 -34 5 -38 -6 -62 7 -69 38 -4 17 -5 17 -6 2z"/>
<path d="M2275 6010 c3 -5 31 -10 61 -10 30 0 54 5 54 10 0 6 -27 10 -61 10
-37 0 -58 -4 -54 -10z"/>
<path d="M2420 6010 c0 -5 6 -10 14 -10 8 0 18 5 21 10 3 6 -3 10 -14 10 -12
0 -21 -4 -21 -10z"/>
<path d="M3926 5937 c-5 -9 -5 -29 0 -45 7 -25 8 -26 11 -4 3 12 3 32 0 45 -3
19 -4 20 -11 4z"/>
<path d="M2356 5920 c-75 -3 -121 -9 -123 -16 -2 -6 6 -14 18 -17 19 -5 21
-11 16 -46 -3 -23 -1 -44 5 -47 6 -4 8 -22 5 -40 -5 -29 -3 -34 14 -34 21 0
25 10 8 27 -17 17 -3 43 23 43 22 1 22 1 3 12 -26 15 -35 28 -35 56 0 19 5 22
40 22 39 0 40 -1 40 -34 0 -19 -5 -38 -10 -41 -8 -5 -7 -11 1 -21 6 -8 8 -25
5 -39 -5 -18 -2 -25 9 -25 10 0 14 10 13 35 -1 19 1 38 4 41 4 3 26 2 50 -3
68 -14 63 -66 -9 -79 -23 -4 -32 -11 -29 -20 7 -19 -27 -27 -125 -28 -83 -1
-88 -3 -114 -30 -21 -22 -25 -35 -20 -55 10 -36 10 -71 1 -101 -6 -20 -1 -32
20 -55 49 -53 65 -57 246 -57 92 -1 171 -4 176 -7 10 -6 16 -33 13 -58 -1 -10
-45 -13 -186 -13 l-185 0 0 36 c0 24 -4 34 -12 32 -22 -8 -21 -53 3 -74 19
-17 37 -19 204 -19 156 0 186 -3 202 -17 25 -23 72 -13 84 19 12 33 11 77 -3
108 -9 20 -18 25 -47 25 -32 0 -33 1 -16 14 11 8 16 19 12 30 -6 15 -9 15 -29
2 -17 -10 -54 -13 -140 -12 -122 1 -145 9 -134 43 6 17 16 19 140 17 74 -1
139 -5 144 -8 6 -3 12 1 16 9 3 9 18 15 36 15 26 0 30 4 30 26 0 24 -3 26 -32
20 -18 -3 -40 -6 -48 -6 -8 0 -42 0 -75 0 l-61 -1 4 40 c3 28 -1 45 -12 56
-20 21 -21 54 -1 61 10 4 15 20 15 44 l0 38 53 -4 c28 -2 59 -4 67 -3 8 0 32
1 53 1 30 0 37 4 37 19 0 11 7 19 16 19 8 0 12 5 9 11 -5 7 -13 4 -26 -7 -15
-13 -36 -16 -106 -15 -48 1 -91 5 -95 9 -4 4 -9 19 -10 32 l-3 25 110 1 c97 1
110 3 113 19 2 10 -2 21 -10 26 -14 9 -160 9 -362 -1z m129 -51 c12 -19 -4
-59 -25 -59 -22 0 -44 34 -36 56 6 16 52 19 61 3z m-157 -272 l3 -37 -75 0
c-41 0 -78 5 -81 10 -4 6 -4 23 0 38 5 26 7 27 78 27 l72 -1 3 -37z m155 14
c9 -44 -1 -51 -64 -51 -64 0 -76 10 -65 53 5 21 11 24 65 24 55 0 60 -2 64
-26z m-203 -115 c45 -1 45 -1 45 -36 0 -26 -4 -34 -15 -31 -8 2 -41 3 -73 3
-64 0 -74 9 -63 54 6 23 10 25 34 18 15 -4 47 -8 72 -8z m418 -165 c4 -38 -9
-51 -50 -51 -26 0 -28 3 -28 38 0 47 6 54 45 50 26 -3 30 -7 33 -37z"/>
<path d="M2756 5915 c-3 -10 -3 -22 3 -28 12 -12 20 4 11 27 -6 19 -7 19 -14
1z"/>
<path d="M4560 5901 c-17 -5 -21 -9 -12 -15 6 -4 12 -20 12 -37 0 -23 4 -29
21 -29 16 0 19 4 14 20 -4 12 -1 27 5 35 6 8 9 19 5 25 -7 11 -9 11 -45 1z"/>
<path d="M4440 5890 c19 -5 41 -4 50 0 10 6 -1 9 -35 9 -48 -1 -49 -1 -15 -9z"/>
<path d="M4333 5879 c12 -7 15 -17 11 -35 -4 -14 -2 -24 5 -24 12 0 15 29 5
54 -3 9 -14 16 -23 16 -14 -1 -14 -2 2 -11z"/>
<path d="M4170 5835 c-4 -24 -11 -31 -32 -33 -26 -3 -28 -7 -28 -45 1 -33 3
-38 11 -24 5 9 19 17 30 17 25 0 31 17 27 71 -3 38 -4 40 -8 14z"/>
<path d="M4670 5810 c0 -11 5 -20 10 -20 6 0 10 9 10 20 0 11 -4 20 -10 20 -5
0 -10 -9 -10 -20z"/>
<path d="M2175 5797 c-9 -35 -3 -61 16 -65 12 -2 15 4 11 26 -3 22 1 31 20 39
17 9 18 12 6 12 -9 1 -23 4 -32 7 -10 4 -17 -2 -21 -19z"/>
<path d="M2607 5733 c-14 -14 -21 -15 -36 -6 -15 9 -21 8 -35 -8 -21 -25 -20
-29 3 -29 30 0 35 -19 6 -26 -47 -12 -25 -22 58 -26 113 -6 113 -6 115 53 1
54 0 54 -28 37 -15 -10 -22 -9 -38 5 -23 21 -24 21 -45 0z m41 -51 c2 -7 -3
-12 -12 -12 -9 0 -16 7 -16 16 0 17 22 14 28 -4z"/>
<path d="M2763 5700 c0 -25 2 -35 4 -22 2 12 2 32 0 45 -2 12 -4 2 -4 -23z"/>
<path d="M4568 5733 c-10 -2 -18 -10 -18 -16 0 -29 13 -57 26 -57 18 0 39 44
31 64 -7 16 -9 17 -39 9z"/>
<path d="M4437 5723 c-4 -3 -7 -17 -7 -29 0 -13 -5 -26 -10 -29 -6 -4 -68 -8
-138 -10 -97 -2 -132 0 -150 11 -20 13 -23 13 -28 -1 -4 -9 -3 -19 1 -23 3 -4
94 -7 200 -7 142 0 197 3 207 13 9 9 7 12 -15 12 -31 0 -35 14 -9 29 16 10 16
12 -2 26 -21 16 -39 19 -49 8z"/>
<path d="M3928 5580 c-4 -14 -8 -39 -8 -57 0 -17 -6 -44 -14 -60 -8 -15 -25
-50 -38 -76 -44 -92 -51 -102 -127 -178 -78 -78 -165 -128 -271 -159 -50 -14
-545 -35 -597 -25 -27 5 -32 11 -35 38 -4 46 -22 39 -26 -10 -3 -40 -1 -43 34
-58 66 -27 517 -15 609 17 17 5 41 12 55 15 41 8 152 64 200 102 25 19 65 58
90 87 50 57 120 186 120 219 0 11 5 26 11 32 5 5 9 38 7 74 -2 47 -5 57 -10
39z"/>
<path d="M2637 5214 c-16 -17 -4 -24 39 -24 32 0 44 4 42 13 -5 13 -69 22 -81
11z"/>
<path d="M2320 5200 c-11 -7 -3 -10 30 -10 33 0 41 3 30 10 -8 5 -22 10 -30
10 -8 0 -22 -5 -30 -10z"/>
<path d="M4215 5099 c-10 -15 1 -22 24 -14 12 3 19 11 16 16 -8 12 -32 11 -40
-2z"/>
<path d="M4400 5091 c-9 -18 -5 -51 7 -51 2 0 13 5 24 10 23 13 25 46 3 54
-22 8 -22 8 -34 -13z"/>
<path d="M4216 5012 c-3 -6 -24 -8 -45 -5 -22 3 -52 2 -68 -2 l-28 -8 35 -8
c19 -5 85 -8 145 -7 61 0 116 -1 124 -3 22 -6 24 19 2 31 -15 8 -27 8 -42 -1
-20 -10 -49 -9 -95 6 -12 4 -25 2 -28 -3z"/>
<path d="M3750 4997 c-24 -11 -23 -11 19 -15 49 -4 75 3 66 18 -8 13 -54 12
-85 -3z"/>
<path d="M2157 4992 c-9 -13 10 -121 24 -136 5 -5 11 -1 14 10 4 10 11 27 16
36 13 25 12 28 -15 28 -21 0 -25 5 -28 38 -2 23 -6 32 -11 24z"/>
<path d="M3701 4961 c-17 -11 -5 -51 15 -51 15 0 17 14 6 42 -5 11 -12 14 -21
9z"/>
<path d="M2319 4918 c36 -7 61 -7 75 0 16 8 4 11 -54 10 l-75 0 54 -10z"/>
<path d="M3758 4883 c12 -2 30 -2 40 0 9 3 -1 5 -23 4 -22 0 -30 -2 -17 -4z"/>
<path d="M2820 4865 c0 -8 -11 -21 -25 -27 -14 -6 -25 -15 -25 -20 0 -15 -38
-8 -44 8 -5 13 -24 15 -118 14 -136 -3 -147 -5 -141 -29 2 -9 -3 -23 -11 -30
-25 -21 -20 -67 11 -95 l27 -25 317 0 318 -1 30 26 c35 29 37 43 16 83 -11 23
-26 31 -77 44 -35 8 -72 15 -83 14 -11 0 -57 0 -103 1 -77 2 -83 3 -77 21 3
11 1 22 -5 26 -5 3 -10 -1 -10 -10z m-75 -134 l0 -34 -125 -2 c-69 -1 -131 2
-137 8 -14 10 -17 49 -6 61 4 3 66 5 137 4 l131 -3 0 -34z m407 27 c3 -7 2
-24 -2 -38 l-6 -25 -165 0 c-90 0 -172 1 -181 3 -13 2 -18 13 -18 38 l0 34
184 0 c138 0 185 -3 188 -12z"/>
<path d="M2165 4493 c-31 -30 -32 -54 -1 -90 21 -24 32 -27 87 -30 35 -1 79 2
97 8 22 7 42 8 62 1 22 -8 31 -7 41 4 13 15 64 11 84 -7 15 -14 129 -10 168 6
44 18 91 19 105 3 11 -14 152 -16 185 -3 10 4 38 5 62 2 48 -7 67 6 36 22 -26
14 -206 14 -232 0 -34 -18 -61 -2 -57 34 l3 30 130 -2 c121 -2 131 -1 148 19
9 11 17 21 17 23 0 6 -197 1 -208 -6 -7 -5 -21 -5 -32 -2 -13 4 -34 -2 -56
-16 -34 -21 -37 -21 -70 -5 -40 18 -44 19 -44 7 0 -5 9 -11 20 -14 13 -3 20
-14 20 -30 0 -32 -45 -52 -97 -43 -21 3 -56 7 -78 8 -35 3 -40 6 -43 29 -3 30
14 37 83 35 36 -1 40 -4 46 -31 6 -31 12 -25 23 28 5 23 2 29 -19 37 -34 13
-92 13 -100 0 -4 -6 -19 -9 -33 -8 -15 1 -33 -1 -40 -6 -7 -4 -14 -1 -18 7 -4
12 -30 15 -134 14 -121 -1 -131 -3 -155 -24z m39 -11 c5 -9 214 -7 223 2 12
12 43 -16 43 -39 0 -14 -1 -25 -2 -25 -2 -1 -67 -3 -145 -6 -125 -5 -144 -4
-149 10 -13 33 14 84 30 58z"/>
<path d="M3770 4502 c0 -12 34 -42 48 -42 16 0 15 23 0 38 -14 14 -48 16 -48
4z"/>
<path d="M3120 4450 c0 -30 13 -40 25 -20 8 13 -4 50 -16 50 -5 0 -9 -13 -9
-30z"/>
<path d="M3765 4240 c-22 -24 -14 -47 20 -60 28 -10 105 -14 105 -5 0 9 -71
69 -90 77 -12 4 -24 0 -35 -12z"/>
<path d="M2720 3874 c0 -14 4 -23 10 -19 6 3 10 15 10 26 0 10 -4 19 -10 19
-5 0 -10 -12 -10 -26z"/>
<path d="M2716 3733 c-4 -58 -9 -110 -12 -115 -11 -17 -44 -7 -61 18 -14 21
-14 29 -4 46 7 11 9 23 6 26 -11 11 -415 10 -421 0 -9 -15 -2 -17 75 -24 70
-7 72 -8 69 -33 -3 -25 -5 -26 -85 -29 -83 -3 -83 -3 -83 23 0 25 -19 37 -21
13 -1 -7 -3 -34 -5 -60 -3 -32 0 -51 11 -62 8 -8 15 -21 15 -28 0 -10 44 -12
227 -10 126 2 247 4 269 5 l41 2 1 162 c0 90 -3 165 -7 168 -5 2 -11 -43 -15
-102z m-118 -59 c7 -2 12 -14 10 -26 -3 -22 -8 -23 -96 -26 -67 -2 -92 -6 -89
-15 2 -8 29 -11 86 -8 51 2 87 -2 96 -9 9 -7 15 -8 20 0 8 13 62 13 70 0 3 -5
3 -21 -1 -35 -5 -19 -12 -25 -34 -25 -16 0 -32 5 -35 10 -5 8 -11 8 -20 0 -8
-7 -79 -10 -204 -8 -174 2 -192 4 -197 21 -9 28 15 49 55 46 20 -1 55 -1 79 0
l42 1 0 39 c0 22 5 41 12 43 14 5 188 -2 206 -8z"/>
<path d="M3736 3512 c-8 -14 6 -53 18 -49 18 6 20 57 2 57 -8 0 -17 -4 -20 -8z"/>
<path d="M4260 3465 c0 -30 19 -45 58 -45 42 0 39 23 -3 28 -16 2 -35 11 -42
20 -11 15 -12 15 -13 -3z"/>
<path d="M2712 3449 c-7 -12 -11 -24 -7 -27 7 -8 25 17 25 36 0 17 -3 15 -18
-9z"/>
<path d="M3918 3434 c-4 -3 -31 -10 -60 -14 -44 -6 -34 -8 64 -9 68 0 119 3
123 9 4 6 -13 10 -44 10 -27 0 -56 2 -63 5 -8 3 -17 3 -20 -1z"/>
<path d="M2240 3421 c0 -11 85 -21 181 -21 59 0 78 3 83 15 5 13 -14 15 -129
15 -74 0 -135 -4 -135 -9z"/>
<path d="M4086 3422 c-2 -4 2 -15 9 -25 13 -18 14 -18 24 2 6 11 11 22 11 25
0 9 -38 7 -44 -2z"/>
<path d="M2383 3383 c-35 -2 -63 -8 -63 -12 0 -7 115 -7 160 -1 3 0 -2 5 -10
10 -8 5 -17 9 -20 8 -3 -1 -33 -3 -67 -5z"/>
<path d="M3800 3370 c0 -5 11 -10 24 -10 14 0 28 5 31 10 4 6 -7 10 -24 10
-17 0 -31 -4 -31 -10z"/>
<path d="M4202 3363 c-13 -7 -33 -13 -44 -13 -18 0 -20 -4 -14 -32 4 -18 13
-39 21 -48 13 -13 15 -11 15 10 1 68 3 70 111 70 95 0 100 -1 110 -24 8 -17 8
-29 -1 -46 -11 -20 -17 -22 -56 -16 -48 6 -144 -10 -144 -25 0 -13 187 -11
196 2 4 6 19 9 36 5 27 -5 29 -4 22 17 -4 12 -10 37 -15 55 -4 19 -15 39 -25
47 -24 17 -178 15 -212 -2z"/>
<path d="M2575 3350 c-12 -20 6 -50 31 -50 27 0 27 0 14 34 -10 26 -34 34 -45
16z"/>
<path d="M2250 3310 c0 -5 9 -10 20 -10 11 0 20 5 20 10 0 6 -9 10 -20 10 -11
0 -20 -4 -20 -10z"/>
<path d="M2157 3283 c-11 -10 -8 -51 3 -58 6 -4 10 8 10 29 0 37 -2 41 -13 29z"/>
<path d="M2333 3273 c-17 -6 -16 -38 1 -52 10 -8 21 -8 40 -1 15 5 38 10 52
10 21 0 44 24 33 34 -8 6 -114 14 -126 9z"/>
<path d="M2503 3262 c-20 -12 -34 -64 -27 -96 12 -54 25 -66 71 -66 24 0 43 5
43 10 0 18 25 11 38 -11 9 -14 17 -18 25 -11 7 6 23 12 37 14 14 1 26 11 28
20 3 15 -3 16 -47 11 l-51 -6 0 37 c0 32 -3 36 -25 36 -18 0 -25 -5 -25 -19 0
-23 -25 -51 -46 -51 -18 0 -36 46 -28 72 5 16 12 19 35 14 27 -5 29 -3 29 24
0 24 -4 30 -22 30 -13 0 -28 -4 -35 -8z"/>
<path d="M4100 3230 c-12 -8 -10 -10 11 -10 31 0 49 -17 49 -46 0 -31 -22 -45
-66 -42 -63 3 -178 -2 -172 -8 11 -11 226 -14 253 -4 24 9 27 14 21 41 -6 30
-49 79 -70 79 -6 0 -18 -5 -26 -10z"/>
<path d="M2191 3191 c-9 -6 -10 -14 -5 -22 5 -8 9 -23 9 -34 0 -35 41 -46 153
-41 57 2 106 7 110 10 14 15 -17 21 -106 21 -54 0 -103 4 -109 8 -7 5 -13 21
-13 38 0 29 -13 36 -39 20z"/>
<path d="M4460 3166 c0 -26 5 -35 23 -40 69 -18 87 5 36 48 -42 36 -59 34 -59
-8z"/>
<path d="M3680 3156 c0 -8 5 -18 10 -21 6 -3 10 3 10 14 0 12 -4 21 -10 21 -5
0 -10 -6 -10 -14z"/>
<path d="M3715 3110 c-4 -6 -2 -17 4 -23 15 -15 25 -2 13 19 -7 12 -11 13 -17
4z"/>
<path d="M3772 3009 c2 -7 10 -15 17 -17 8 -3 12 1 9 9 -2 7 -10 15 -17 17 -8
3 -12 -1 -9 -9z"/>
<path d="M3800 2966 c0 -15 18 -31 26 -23 7 7 -7 37 -17 37 -5 0 -9 -6 -9 -14z"/>
<path d="M4407 2936 c-8 -19 1 -26 35 -26 30 0 35 9 16 28 -16 16 -45 15 -51
-2z"/>
<path d="M3832 2916 c1 -10 8 -17 13 -17 15 1 12 24 -3 29 -9 3 -13 -2 -10
-12z"/>
<path d="M4360 2851 c0 -5 74 -11 163 -12 122 -3 168 -8 181 -18 14 -12 18
-12 30 5 8 10 12 22 10 26 -7 11 -384 10 -384 -1z"/>
<path d="M3890 2823 c0 -5 5 -15 10 -23 8 -12 10 -11 10 8 0 12 -4 22 -10 22
-5 0 -10 -3 -10 -7z"/>
<path d="M4740 2769 c0 -11 54 -69 64 -69 15 0 4 39 -13 45 -11 3 -22 12 -25
20 -6 17 -26 20 -26 4z"/>
<path d="M4560 2683 c0 -18 5 -33 10 -33 13 0 13 30 0 50 -7 11 -10 7 -10 -17z"/>
</g>
</svg>
